<svg width="96" height="96" viewBox="0 0 96 96" fill="none" xmlns="http://www.w3.org/2000/svg">
  <defs>
    <linearGradient id="bg" x1="24" y1="10" x2="72" y2="86" gradientUnits="userSpaceOnUse">
      <stop offset="0" stop-color="#2C323F"/>
      <stop offset="1" stop-color="#0E1018"/>
    </linearGradient>
    <linearGradient id="glow" x1="32" y1="16" x2="64" y2="66" gradientUnits="userSpaceOnUse">
      <stop offset="0" stop-color="#3A4252" stop-opacity="0.65"/>
      <stop offset="1" stop-color="#0A0C12" stop-opacity="0.15"/>
    </linearGradient>
  </defs>
  <g filter="url(#shadow)">
    <path d="M28 12h40c8.837 0 16 7.163 16 16v26c0 8.837-7.163 16-16 16h-9.172L48 84l-10.828-14H28c-8.837 0-16-7.163-16-16V28c0-8.837 7.163-16 16-16z" fill="url(#bg)"/>
    <path d="M28 12h40c8.837 0 16 7.163 16 16v26c0 8.837-7.163 16-16 16h-9.172L48 84l-10.828-14H28c-8.837 0-16-7.163-16-16V28c0-8.837 7.163-16 16-16z" fill="url(#glow)"/>
    <rect x="24" y="20" width="48" height="40" rx="18" fill="#1A1D26" fill-opacity="0.45"/>
  </g>
  <g stroke="#F4F5FF" stroke-width="4" stroke-linecap="round" stroke-linejoin="round">
    <path d="M32 28h10c5.523 0 10 4.477 10 10v21c-3.4-2.4-7-3.6-10-3.6s-6.6 1.2-10 3.6V32c0-2.209-1.791-4-4-4H32z" fill="none"/>
    <path d="M64 28H54c-5.523 0-10 4.477-10 10v21c3.4-2.4 7-3.6 10-3.6s6.6 1.2 10 3.6V32c0-2.209 1.791-4 4-4H64z" fill="none"/>
    <path d="M48 38v18"/>
  </g>
  <defs>
    <filter id="shadow" x="0" y="0" width="96" height="96" filterUnits="userSpaceOnUse" color-interpolation-filters="sRGB">
      <feFlood flood-opacity="0" result="BackgroundImageFix"/>
      <feGaussianBlur in="SourceAlpha" stdDeviation="4"/>
      <feOffset dy="6"/>
      <feComposite in2="SourceAlpha" operator="out"/>
      <feColorMatrix type="matrix" values="0 0 0 0 0 0 0 0 0 0 0 0 0 0 0 0 0 0 0.3 0"/>
      <feBlend in2="BackgroundImageFix" result="effect1_dropShadow"/>
      <feBlend in="SourceGraphic" in2="effect1_dropShadow" result="shape"/>
    </filter>
  </defs>
</svg>
